<svg width="268" height="283" viewBox="0 0 268 283" fill="none" xmlns="http://www.w3.org/2000/svg">
<circle cx="134" cy="138" r="134" fill="#C0091B"/>
<path d="M161 135.5C162.924 136.168 163.058 136.237 165.015 137.016C170.725 139.289 176.02 142.283 180.899 145.998C185.778 149.713 189.715 154.315 192.709 159.804C195.758 165.293 197.283 171.863 197.283 179.514C197.283 189.161 194.788 197.727 189.798 205.212C184.863 212.697 177.683 218.602 168.258 222.927C158.888 227.251 147.55 229.414 134.243 229.414C121.491 229.414 110.457 227.39 101.143 223.343C91.8279 219.295 78.7594 205.619 73.4922 198.189L114.184 165.695C105.987 177.99 94.0003 186.251 102.307 194.899C106.035 198.781 110.374 201.969 115.863 203.965C121.408 205.905 127.479 206.876 134.076 206.876C141.339 206.876 147.799 205.739 153.454 203.466C159.165 201.137 163.657 197.921 166.928 193.818C170.199 189.66 171.834 184.809 171.834 179.265C171.834 174.219 170.393 170.088 167.51 166.872C164.682 163.656 160.828 160.996 155.949 158.889C151.126 156.782 145.664 154.924 139.565 153.316L129.063 150.452L152.762 132.304L194.396 101.337L161 135.5Z" fill="#F0F0F0"/>
<path d="M138.491 46.3379C150.024 46.3379 160.198 48.3617 169.014 52.4092C177.885 56.4566 184.871 62.0291 189.972 69.126C192.159 72.1457 192.009 72.1396 193.299 75.5469L155.281 107.163C174.835 87.2564 168.625 79.4389 162.193 75.1143C155.762 70.7342 147.667 68.544 137.909 68.5439C130.923 68.5439 124.879 69.6523 119.778 71.8701C114.678 74.0324 110.713 77.0269 107.886 80.8525C105.114 84.6227 103.728 88.9196 103.728 93.7432C103.728 97.7906 104.671 101.284 106.556 104.223C108.496 107.161 111.018 109.628 114.123 111.624C117.283 113.565 120.666 115.201 124.27 116.531C127.873 117.806 131.339 118.86 134.666 119.691L151.299 124.016C152.568 124.326 153.845 124.663 155.129 125.025L132.117 142.872L122.44 140.233C117.175 138.799 114.923 138.216 110.5 136.262L60 170.262L101 131.762C96.9634 129.459 93.1589 126.697 90.0049 123.85C82.0764 116.642 78.1123 107.105 78.1123 95.2402C78.1123 85.4266 80.774 76.8606 86.0967 69.542C91.4193 62.2234 98.6269 56.5406 107.72 52.4932C116.813 48.3903 127.07 46.3379 138.491 46.3379Z" fill="#F0F0F0"/>
</svg>
