<svg width="128" height="54" viewBox="0 0 128 54" fill="none" xmlns="http://www.w3.org/2000/svg">
<path d="M71.3561 43V18.8832H76.0507V43H71.3561ZM73.727 15.162C72.9105 15.162 72.2092 14.8899 71.623 14.3456C71.0473 13.7908 70.7595 13.1314 70.7595 12.3672C70.7595 11.5927 71.0473 10.9332 71.623 10.3889C72.2092 9.83414 72.9105 9.55676 73.727 9.55676C74.5434 9.55676 75.2395 9.83414 75.8152 10.3889C76.4014 10.9332 76.6945 11.5927 76.6945 12.3672C76.6945 13.1314 76.4014 13.7908 75.8152 14.3456C75.2395 14.8899 74.5434 15.162 73.727 15.162Z" fill="#F5F5F5"/>
<path d="M47.6147 32.9984V18.8832H52.325V43H47.7089V38.8235H47.4577C46.9029 40.111 46.0132 41.1839 44.7885 42.0422C43.5743 42.8901 42.0617 43.314 40.2509 43.314C38.7017 43.314 37.3305 42.9738 36.1372 42.2935C34.9544 41.6026 34.0228 40.582 33.3424 39.2317C32.6725 37.8815 32.3376 36.2119 32.3376 34.2231V18.8832H37.0322V33.6579C37.0322 35.3013 37.4875 36.6097 38.3982 37.5831C39.3088 38.5566 40.4916 39.0433 41.9466 39.0433C42.8259 39.0433 43.6999 38.8235 44.5687 38.3839C45.4479 37.9443 46.1754 37.2796 46.7511 36.3899C47.3373 35.5001 47.6251 34.3697 47.6147 32.9984Z" fill="#F5F5F5"/>
<path d="M47.6147 32.9984V18.8832H52.325V43H47.7089V38.8235H47.4577C46.9029 40.111 46.0132 41.1839 44.7885 42.0422C43.5743 42.8901 42.0617 43.314 40.2509 43.314C38.7017 43.314 37.3305 42.9738 36.1372 42.2935C34.9544 41.6026 34.0228 40.582 33.3424 39.2317C32.6725 37.8815 32.3376 36.2119 32.3376 34.2231V18.8832H37.0322V33.6579C37.0322 35.3013 37.4875 36.6097 38.3982 37.5831C39.3088 38.5566 40.4916 39.0433 41.9466 39.0433C42.8259 39.0433 43.6999 38.8235 44.5687 38.3839C45.4479 37.9443 46.1754 37.2796 46.7511 36.3899C47.3373 35.5001 47.6251 34.3697 47.6147 32.9984Z" fill="#F5F5F5"/>
<path d="M52.3964 28.6806V43H47.7018V18.8832H52.208V22.8084H52.5063C53.0611 21.5314 53.9299 20.5056 55.1127 19.731C56.306 18.9565 57.8081 18.5692 59.6189 18.5692C61.2623 18.5692 62.7015 18.9146 63.9367 19.6054C65.1718 20.2858 66.1296 21.3011 66.81 22.6514C67.4904 24.0017 67.8306 25.6713 67.8306 27.6601V43H63.1359V28.2253C63.1359 26.4773 62.6806 25.1113 61.77 24.1273C60.8593 23.1329 59.6084 22.6357 58.0174 22.6357C56.9288 22.6357 55.9606 22.8713 55.1127 23.3423C54.2753 23.8133 53.6106 24.5042 53.1187 25.4148C52.6372 26.315 52.3964 27.4036 52.3964 28.6806Z" fill="#F5F5F5"/>
<circle cx="115.565" cy="30.342" r="12.4352" fill="#C0091B"/>
<path d="M96.0564 18.791H103.13L90.8596 30.9286L103.13 42.7772H96.0564L83.7861 30.9286L96.0564 18.791Z" fill="#F5F5F5"/>
<rect x="79.1436" y="18.791" width="5.52677" height="5.52677" fill="#F5F5F5"/>
<mask id="mask0_9255_1129" style="mask-type:alpha" maskUnits="userSpaceOnUse" x="0" y="5" width="31" height="30">
<path d="M14.4249 29.0155L25.2573 20.6148C26.8969 19.4911 30.3751 17.1882 30.7288 16.7461C31.171 16.1934 30.2867 12.3247 30.1209 11.7167C29.9551 11.1088 19.399 5.8031 19.1779 5.8031C19.001 5.8031 9.48762 8.01381 4.75302 9.11916L0 34.9292L14.4249 29.0155Z" fill="#D9D9D9"/>
</mask>
<g mask="url(#mask0_9255_1129)">
<path d="M21.009 20.5596C24.7006 16.8014 23.5283 15.3255 22.314 14.509C21.0998 13.6821 19.5716 13.2687 17.7293 13.2687C16.4104 13.2687 15.2695 13.478 14.3065 13.8967C13.3435 14.3049 12.5951 14.8702 12.0613 15.5924C11.5379 16.3042 11.2762 17.1154 11.2762 18.0261C11.2762 18.7902 11.4541 19.4496 11.81 20.0044C12.1764 20.5592 12.6527 21.025 13.2388 21.4018C13.8355 21.7682 14.474 22.0769 15.1544 22.3282C15.8347 22.5689 16.4889 22.7678 17.117 22.9248L20.2572 23.7413C20.5063 23.8023 20.7569 23.8685 21.009 23.94L25.3125 20.7254L22.314 24.352C22.6773 24.4782 23.0437 24.6148 23.4131 24.7618C24.4913 25.191 25.4909 25.7562 26.412 26.4575C27.3331 27.1589 28.0763 28.0276 28.6416 29.0639C29.2173 30.1002 29.5051 31.3406 29.5051 32.7851C29.5051 34.6064 29.0341 36.2236 28.092 37.6367C27.1604 39.0498 25.8049 40.1646 24.0255 40.981C22.2565 41.7975 20.1159 42.2057 17.6037 42.2057C15.1962 42.2057 13.1132 41.8236 11.3547 41.0595C9.59619 40.2954 7.12898 37.7135 6.13458 36.3109L10.444 32.7851C10.5383 33.9469 10.9151 34.9152 11.5745 35.6898C12.2444 36.4539 13.0975 37.0243 14.1338 37.4012C15.1805 37.7675 16.3267 37.9507 17.5723 37.9507C18.9435 37.9507 20.163 37.7361 21.2307 37.307C22.3088 36.8673 23.1567 36.2602 23.7742 35.4856C24.3918 34.7006 24.7006 33.7847 24.7006 32.738C24.7006 31.7854 24.4284 31.0056 23.8841 30.3985C23.3503 29.7914 22.6228 29.289 21.7017 28.8912C20.791 28.4934 19.76 28.1428 18.6086 27.8392L14.8089 26.803C13.8148 26.5322 12.9003 26.2123 12.0653 25.8433L2.43164 32.738L10.7218 25.1681C9.95973 24.7335 9.28097 24.2474 8.68553 23.7099C7.18869 22.3491 6.44028 20.5487 6.44028 18.3087C6.44028 16.456 6.94271 14.8388 7.94758 13.4571C8.95244 12.0754 10.3132 11.0025 12.0299 10.2384C13.7465 9.46377 15.683 9.07648 17.8392 9.07648C20.0165 9.07648 21.9372 9.45854 23.6015 10.2227C25.2763 10.9868 26.5952 12.0387 27.5582 13.3786C27.9712 13.9487 27.9428 13.9474 28.1864 14.5907L21.009 20.5596Z" fill="#F5F5F5"/>
</g>
<mask id="mask1_9255_1129" style="mask-type:alpha" maskUnits="userSpaceOnUse" x="2" y="18" width="30" height="28">
<path d="M12.4375 31.6131L29.9021 18.2383L27.9124 23.2124L31.8364 35.5371C29.3862 38.8532 24.4748 45.4964 24.4306 45.5406C24.3753 45.5959 6.02642 44.1036 5.86062 44.2142C5.72797 44.3026 3.74202 39.4611 2.76562 37.0294L12.4375 31.6131Z" fill="#D9D9D9"/>
</mask>
<g mask="url(#mask1_9255_1129)">
<path d="M24.3887 19.0686C24.2212 17.5823 23.5304 16.4308 22.3162 15.6144C21.102 14.7875 19.5737 14.374 17.7315 14.374C16.4126 14.374 15.2716 14.5834 14.3086 15.002C13.3456 15.4103 12.5972 15.9755 12.0634 16.6978C11.54 17.4095 11.2783 18.2208 11.2783 19.1314C11.2783 19.8955 11.4563 20.555 11.8122 21.1098C12.1785 21.6645 12.6548 22.1303 13.241 22.5071C13.8376 22.8735 14.4761 23.1823 15.1565 23.4335C15.8369 23.6743 16.4911 23.8731 17.1191 24.0302L20.2593 24.8466C20.5084 24.9076 20.759 24.9738 21.0112 25.0453L28.9623 19.1314L22.3162 25.4573C22.6795 25.5835 23.0458 25.7201 23.4153 25.8672C24.4934 26.2963 25.493 26.8616 26.4142 27.5629C27.3353 28.2642 28.0785 29.133 28.6437 30.1693C29.2194 31.2055 29.5073 32.4459 29.5073 33.8904C29.5073 35.7117 29.0362 37.3289 28.0942 38.742C27.1626 40.1551 25.807 41.2699 24.0276 42.0864C22.2586 42.9028 20.118 43.311 17.6059 43.311C15.1984 43.311 13.1154 42.929 11.3568 42.1649C9.59833 41.4007 7.13112 38.8189 6.13672 37.4163L13.8189 31.2815C12.2714 33.6028 9.78439 34.9292 11.5767 36.7951C12.2806 37.528 13.0997 38.1297 14.1359 38.5065C15.1827 38.8729 16.3288 39.0561 17.5745 39.0561C18.9457 39.0561 20.1651 38.8415 21.2328 38.4123C22.3109 37.9727 23.1588 37.3656 23.7764 36.591C24.394 35.8059 24.7027 34.89 24.7027 33.8433C24.7027 32.8908 24.4306 32.111 23.8863 31.5039C23.3525 30.8967 22.625 30.3943 21.7038 29.9966C20.7932 29.5988 19.7621 29.2481 18.6107 28.9446L14.8111 27.9083C13.817 27.6376 12.9024 27.3177 12.0675 26.9486L7.94972 29.5821L10.7239 26.2735C9.96187 25.8389 9.28311 25.3528 8.68767 24.8152C7.19083 23.4544 6.44242 21.6541 6.44242 19.414C6.44242 17.5613 6.94485 15.9441 7.94972 14.5624C8.95459 13.1807 10.3153 12.1078 12.032 11.3437C13.7486 10.5691 15.6851 10.1818 17.8414 10.1818C20.0186 10.1818 21.9394 10.5639 23.6037 11.328C25.2784 12.0921 26.5973 13.1441 27.5603 14.4839C27.9733 15.054 27.945 15.0528 28.1885 15.696L24.3887 19.0686Z" fill="#F5F5F5"/>
</g>
</svg>
