<svg width="1600" height="1802" viewBox="0 0 1600 1802" fill="none" xmlns="http://www.w3.org/2000/svg">
<g clip-path="url(#clip0_9369_2417)">
<path d="M-514.036 0C-513.505 0 -511.969 0.671247 -510.624 1.49121C-509.278 2.31124 -504.413 4.08351 -499.814 5.42969C-495.215 6.77588 -491.133 8.33353 -490.745 8.8916C-490.355 9.44964 -486.581 9.90186 -482.356 9.89746C-478.132 9.89197 -470.931 10.7391 -466.356 11.7793C-459.215 13.4028 -456.995 13.4797 -450.657 12.3174C-443.422 10.9921 -443.158 11.0306 -437.262 14.248C-432.135 17.0471 -429.235 17.7037 -417.6 18.7119C-400.674 20.177 -401.227 20.0209 -389.928 26.5635C-384.796 29.5365 -379.152 32.2348 -377.385 32.5596C-375.618 32.8854 -370.822 34.1789 -366.728 35.4326C-362.452 36.7435 -354.266 38.0038 -347.496 38.3945C-338.823 38.8965 -334.364 39.7146 -330.619 41.4922C-327.819 42.8208 -321.773 44.4884 -317.185 45.1973C-312.596 45.9062 -305.686 47.9796 -301.828 49.8057C-295.165 52.9604 -294.295 53.0932 -284.416 52.4746C-274.558 51.8582 -273.626 51.9993 -266.479 55.2002C-262.334 57.0571 -256.718 60.5673 -254.002 63.001L-249.064 67.4268L-240.875 66.752C-234.057 66.1895 -231.234 66.5304 -224.019 68.7891C-219.253 70.2805 -212.92 71.5112 -209.947 71.5244C-201.969 71.5586 -188.369 74.5627 -175.028 79.2363C-162.855 83.5005 -158.044 85.86 -142.546 95.1611C-137.55 98.1594 -130.184 101.795 -126.176 103.24C-122.168 104.684 -117.143 106.811 -115.009 107.966C-112.356 109.4 -108.774 110.074 -103.684 110.096C-94.3035 110.134 -87.6245 111.481 -75.3447 115.809C-67.4286 118.598 -65.0749 119.998 -62.7051 123.329C-59.5461 127.769 -54.6004 129.883 -47.3545 129.892C-39.8726 129.899 -28.0514 136.182 -23.0039 142.831C-17.7929 149.695 -15.6957 150.8 -7.88281 150.8C-2.82304 150.8 -0.85362 151.48 4.58691 155.105C9.90857 158.653 13.4714 159.917 24.7959 162.272C36.1228 164.629 39.8585 165.954 46.0127 169.8C53.4002 174.414 53.5889 174.463 62.9951 174.162C75.9004 173.748 79.8202 175.435 86.1543 184.13C90.6011 190.234 92.3419 191.538 102.904 196.674C113.853 201.999 115.279 202.403 122.945 202.352C133.559 202.28 144.029 205.653 150.675 211.283C153.405 213.597 158.279 225.448 160.896 226.188C163.513 226.927 167.473 228.948 169.694 230.679C174.557 234.466 179.074 236.105 184.645 236.105C198.051 236.105 229.65 246.061 240.482 253.698C245.164 256.998 246.141 257.337 254.568 258.588C256.841 258.926 260.955 260.913 263.708 263.004C266.462 265.095 271.055 267.513 273.912 268.376C276.77 269.24 282.959 272.286 287.665 275.145L296.223 280.343L306.309 279.963C315.183 279.629 317.129 279.159 322.5 276.05C331.637 270.76 343.887 265.279 351.559 263.048C355.312 261.956 361.454 259.205 365.207 256.936C368.96 254.665 380.406 249.145 390.643 244.668C400.879 240.19 413.721 234.265 419.181 231.499C424.64 228.733 434.518 224.227 441.131 221.486C447.744 218.746 455.1 215.187 457.478 213.579C459.854 211.971 466.252 208.988 471.695 206.952C477.138 204.916 483.741 202.078 486.368 200.647C488.996 199.217 498.963 194.659 508.517 190.521C518.07 186.382 528.959 181.625 532.712 179.949C536.465 178.274 543.6 175.617 548.566 174.045C556.587 171.507 558.192 171.329 562.923 172.451C567.653 173.573 568.876 173.439 573.821 171.247C576.886 169.889 584.663 165.363 591.104 161.19C597.546 157.017 606.474 151.846 610.947 149.701C615.419 147.555 623.794 143.078 629.559 139.752C636.485 135.755 643.614 132.737 650.585 130.853C663.434 127.378 666.934 125.822 674.308 120.309C677.46 117.952 682.888 115.063 686.371 113.889C689.853 112.715 695.334 109.973 698.551 107.796C701.767 105.618 709.46 101.593 715.646 98.8535C721.832 96.1139 730.117 92.1487 734.058 90.043C745.458 83.9504 748.231 83.6217 760.762 86.8799C771.178 89.5887 772.614 89.6772 801.339 89.4219C827.837 89.1863 831.861 89.3876 837.865 91.2412C843.728 93.0518 846.745 93.2292 860.898 92.5996L877.185 91.875L891.213 99.3145C898.929 103.406 911.194 110.752 918.469 115.638C925.743 120.524 935.155 126.606 939.384 129.153C950.231 135.688 952.779 140.342 945.506 140.342C943.248 140.342 940.347 141.024 939.061 141.859C936.833 143.304 936.824 143.516 938.84 146.247C941.63 150.025 944.675 151.741 962.531 159.604C974.311 164.792 978.121 167.036 980.286 170.062C988.102 180.984 993.098 186.265 999.753 190.641C1007.42 195.682 1010.15 195.68 1008.72 190.633C1008.3 189.144 1001.67 182.279 993.981 175.377C986.297 168.474 978.025 160.864 975.6 158.464C973.174 156.064 968.985 152.546 966.293 150.646C959.653 145.961 961.786 144.676 969.136 148.935C972.387 150.819 977.839 153.679 981.251 155.293C984.663 156.908 991.084 160.556 995.52 163.401C999.955 166.246 1012.24 173.202 1022.82 178.859C1033.39 184.517 1058.52 198.627 1078.65 210.216C1136.64 243.6 1141.56 246.296 1159.92 254.798C1169.48 259.221 1182.04 265.465 1187.84 268.674C1216.3 284.417 1215.3 283.607 1212.98 289.08C1211.89 291.643 1212.13 293.035 1214.32 296.892C1216.91 301.427 1220.5 304.049 1235.51 312.378C1241.3 315.588 1243.64 319.132 1241.32 321.188C1239.83 322.506 1226.16 317.313 1217 311.953C1214.27 310.356 1209.05 307.713 1205.41 306.081C1201.77 304.449 1196.46 301.258 1193.62 298.991C1184.34 291.58 1175.69 286.675 1169.33 285.211C1165.9 284.42 1160.98 282.524 1158.4 280.996C1155.83 279.469 1147.02 274.959 1138.83 270.972C1116.69 260.197 1106.64 258.572 1111.32 266.524C1112.34 268.259 1114.95 271.163 1117.12 272.979C1121.85 276.947 1124.99 281.956 1124.07 284.086C1123.63 285.097 1121.49 285.638 1117.92 285.638C1113.64 285.638 1110.99 284.758 1105.88 281.642C1097.84 276.736 1077.94 268.836 1068.73 266.895C1064.97 266.103 1058.44 264.041 1054.21 262.311C1034.06 254.063 1031.8 254.386 1029.68 265.825C1028.79 270.633 1029.1 270.992 1038.95 276.792C1048.47 282.397 1055.08 287.696 1055.08 289.728C1055.08 292.392 1049.36 290.538 1015.99 277.065C1008.49 274.034 995.644 269.745 987.455 267.535C963.727 261.13 962.463 260.626 960.702 256.856C958.623 252.403 931.281 231.219 925.383 229.491C919.067 227.642 917.478 229.293 920.876 234.171C922.305 236.223 924.685 238.859 926.164 240.03C930.58 243.525 942.167 260.191 942.167 263.049C942.167 266.343 937.902 269.127 932.854 269.127C930.766 269.127 925.226 267.323 920.545 265.117L912.032 261.107L899.446 261.79C898.08 261.864 896.804 261.94 895.61 262.02C918.716 269.878 946.988 283.507 968.998 283.507C997.926 283.507 994.5 310.406 1008.5 299.646C1022.5 288.887 1111.46 343.721 1087.06 316.861C1046 271.671 1190.65 323.826 1199.5 325.47C1277.45 339.949 1310.5 301.798 1325.5 334.077C1340.5 366.356 1370 350.488 1402.5 374C1442.5 402.939 1499 377.061 1535 390C1571 402.939 1562.23 419.723 1590.5 411.5C1618 403.5 1651.8 405.017 1691 407.5C1722.91 409.521 1734.67 418.324 1773.5 420.5C1802.22 422.109 1765.06 400.665 1794 405C1813.82 407.969 1823 438.614 1916.5 438.614C2006.45 420.51 2004 457.46 2004 457.5L1993 1555.5C1937.81 1566.3 1738.34 1523.35 1568.34 1537.72C1528.01 1542.18 1496.9 1547.33 1472.75 1553.7C1467.48 1555.13 1462.3 1556.65 1457.19 1558.28C1445.99 1561.97 1436.62 1566.04 1428.74 1570.56C1401.29 1586.3 1370.41 1608.47 1305.5 1659.05C1216.32 1728.52 1170.62 1759.15 1113.14 1787.93C1088.71 1800.16 1084.49 1801.41 1067.5 1801.45C1050.66 1801.49 1042.25 1799.48 1019.17 1789.93C965.973 1767.92 949.558 1763.7 917 1763.67C904.558 1763.66 895.131 1764.2 888.213 1765.31C853.095 1770.94 881.274 1731.42 840.5 1729C806.822 1727 741.734 1771.07 705.787 1765.31C698.869 1764.2 689.442 1763.66 677 1763.67C655.742 1763.69 643.372 1765.5 623.5 1771.51C611.94 1775 605.104 1777.59 572.469 1790.86C553.691 1798.49 544.235 1800.99 531.459 1801.71C514.575 1802.65 504.842 1799.95 479.714 1787.36C423.121 1759 377.775 1728.53 286.5 1657.52C230.87 1614.25 215.279 1602.71 189.5 1585.73C172.649 1574.63 161.526 1568.01 150.438 1563.17C22.5606 1514.39 -499.377 1560.5 -499.499 1560.51V411.161C-499.499 411.161 -468.449 427.904 -405.5 411.161C-382.312 404.994 -360.539 384.549 -335.329 370.569C-357.707 370.159 -362.449 371.297 -372.666 376.412C-377.217 378.691 -382.31 380.086 -389.122 380.922C-399.201 382.157 -405.275 383.8 -419.394 389.112C-426.596 391.822 -428.324 392.051 -436.765 391.415C-467.297 389.113 -464.293 388.934 -472.745 393.562C-482.133 398.703 -489.088 399.009 -498.665 394.704C-502.077 393.17 -507.148 391.592 -509.934 391.196L-515 390.478V195.238C-515 87.8711 -514.566 0.0235234 -514.036 0ZM1416.76 345.139C1417.45 345.129 1422.55 346.543 1428.1 348.281C1433.66 350.019 1442.05 352.017 1446.75 352.721C1451.45 353.424 1457.51 355.198 1460.22 356.663C1462.93 358.128 1470.46 361.651 1476.94 364.489L1488.73 369.652L1504.01 369.968C1512.41 370.143 1520.71 369.806 1522.44 369.221C1524.18 368.634 1531.26 367.443 1538.18 366.573C1545.1 365.704 1554.11 363.779 1558.21 362.295C1562.3 360.811 1568.73 359.092 1572.48 358.475C1576.23 357.857 1580.87 356.819 1582.79 356.167C1588.73 354.155 1594.98 354.849 1606.92 358.845C1613.24 360.959 1620.16 362.689 1622.29 362.689C1625.09 362.689 1627.67 363.909 1631.55 367.084C1636.8 371.379 1637.12 371.475 1645.34 371.266C1655.61 371.005 1658.83 372.605 1663.56 380.316C1667.31 386.419 1669.76 388.006 1675.42 388.006C1680.75 388.006 1687.87 385.174 1687.87 383.056C1687.87 380.216 1693.97 376.009 1700.64 374.252C1704.05 373.355 1709.34 371.32 1712.4 369.729C1719.48 366.046 1725.01 366.098 1735.18 369.939C1745.5 373.843 1759.33 374.754 1768.26 372.121C1773.85 370.475 1776.52 370.418 1793.54 371.594C1815.94 373.142 1818.48 373.175 1830.05 372.057C1839.73 371.12 1845.52 372.217 1852.89 376.38C1855.28 377.728 1859.83 379.611 1863 380.561C1866.17 381.512 1872.55 384.319 1877.19 386.799C1881.82 389.28 1886.21 391.311 1886.94 391.314C1891.87 391.337 1898.04 394.257 1904.04 399.407L1910.89 405.292L1924.51 405.865C1938.74 406.464 1945 408.104 1945.72 411.425C1946.71 415.977 1926.84 419.221 1917.41 416.048C1904.02 411.543 1894.48 413.292 1888.01 421.438C1882.56 428.293 1880.96 428.375 1851.65 423.315C1841.78 421.61 1829.14 416.671 1823.62 412.361C1820.24 409.721 1814.2 406.817 1807.34 404.524C1801.34 402.521 1793.09 399.657 1788.99 398.159C1778.2 394.209 1773.4 393.939 1765.36 396.832C1759.75 398.853 1757.39 399.137 1752.05 398.439C1737.25 396.502 1680.44 398.78 1669.26 401.759C1663.79 403.216 1659.97 403.416 1650.03 402.765C1643.2 402.318 1628.41 401.885 1617.15 401.803C1594.54 401.637 1594.85 401.7 1573.36 392.803C1562.52 388.316 1559.85 387.673 1548.54 386.847C1541.58 386.337 1533.17 385.088 1529.87 384.073C1524.71 382.487 1522.6 382.406 1514.98 383.493C1509.69 384.248 1499.82 384.518 1490.59 384.159C1467.14 383.249 1465.75 383.249 1457.44 384.158C1448.72 385.114 1450.01 385.46 1423.59 375.051C1390.55 362.034 1388.68 361.207 1386.28 358.49C1383.28 355.109 1383.29 354.409 1386.36 351.682C1388.22 350.035 1390.5 349.48 1395.41 349.48C1399.01 349.48 1405.02 348.507 1408.74 347.318C1412.47 346.13 1416.08 345.149 1416.76 345.139ZM1970.92 412.291C1983.45 412.167 1983.78 417.982 1971.36 420.04C1967.2 420.73 1964.54 420.613 1962.25 419.637C1957.95 417.808 1957.36 414.704 1961.06 413.388C1962.64 412.823 1967.08 412.33 1970.92 412.291ZM-198.703 356.591C-206.153 353.219 -211.793 353.773 -221.187 358.799C-228.505 362.715 -238.002 365.696 -246.688 366.968C-214.568 379.164 -190.104 386.967 -190 387C-190 387 -154.236 386.082 -118.257 371.983C-119.451 372.024 -120.683 372.047 -121.968 372.047C-131.533 372.047 -134.374 371.554 -144.181 368.194C-151.929 365.54 -157.459 364.342 -161.969 364.342C-165.567 364.342 -170.956 363.563 -173.941 362.612C-176.928 361.661 -182.649 360.402 -186.655 359.815C-190.662 359.228 -196.083 357.776 -198.703 356.591ZM-432.955 359.453C-439.573 357.361 -439.51 357.362 -442.488 359.323C-444.393 360.579 -444.617 361.326 -443.562 362.9C-440.791 367.039 -434.402 368.741 -421.632 368.742C-414.583 368.743 -409.535 368.295 -409.534 367.669C-409.534 365.822 -415.003 363.308 -421.395 362.217C-424.766 361.64 -429.969 360.398 -432.955 359.453ZM459.229 246.625C455.507 244.311 455.229 244.371 449.894 248.614C447.333 250.651 443.398 253.151 441.151 254.171C438.904 255.19 434.172 257.967 430.636 260.341C422.809 265.596 418.745 266.535 413.75 264.243C408.917 262.026 405.062 262.061 402.218 264.345C398.923 266.99 399.398 269.292 403.919 272.589C407.363 275.101 407.686 275.743 406.261 277.267C405.351 278.239 403.02 279.034 401.081 279.034C396.639 279.034 394.487 275.937 396.181 271.985C397.174 269.668 396.917 268.91 394.664 267.51C389.072 264.035 382.795 265.745 374.292 273.057C369.41 277.256 367.282 278.302 362.726 278.742C359.655 279.038 349.689 281.454 340.578 284.11C331.469 286.767 323.416 288.94 322.685 288.94C321.953 288.94 317.961 290.125 313.812 291.571C303.99 294.998 293.465 296.076 285.791 294.442C280.599 293.337 278.308 293.487 269.124 295.528C256.935 298.237 245.354 302.651 234.438 308.748C230.271 311.076 222.394 314.609 216.935 316.598C207.471 320.044 206.402 320.192 193.98 319.79C162.098 318.758 161.659 309.395 134.544 317.262C116.656 322.451 106.265 324.834 97.3213 325.8C79.1293 327.761 70.0468 329.801 58.2373 334.584C52.088 337.073 43.1887 339.589 36.8955 340.616C30.9584 341.585 23.1413 343.599 19.5244 345.093C15.9076 346.586 11.6583 347.814 10.0801 347.819C8.50305 347.826 3.0498 346.029 -2.03613 343.829L-11.2852 339.829L-20.5684 341.158C-22.9691 341.501 -25.8132 341.742 -28.5254 341.863C-20.3849 346.132 -13.1362 350.5 -8 350.5C47 350.5 97.6136 329.154 146.999 325.47C180.442 322.975 132.551 336.062 219.999 341.5C260.09 343.993 366.431 294.669 353.499 334.077C348.351 349.764 302.663 348.037 329.499 358C346.635 364.361 431.924 303.951 451.122 325.47C470.32 346.988 511.115 317.22 529.113 299.646L572.865 288.255C572.765 288.156 572.662 288.058 572.553 287.961C569.157 284.948 565.412 285.058 552.563 288.552C546.763 290.128 538.667 292.131 534.572 293.003C521.76 295.732 508.704 298.952 503.839 300.582C496.436 303.062 491.47 302.574 486.183 298.847C480.587 294.902 474.612 294.52 468.191 297.696C465.803 298.877 457.428 302.716 449.58 306.225L435.311 312.606L422.282 312.624C408.54 312.643 405.536 313.436 396.73 319.373C394.619 320.797 392.128 321.962 391.196 321.962C390.264 321.962 387.118 319.659 384.203 316.842L378.905 311.722L366.634 312.436C355.514 313.082 354.066 312.94 351.19 310.934C349.445 309.715 347.385 307.026 346.616 304.958C345.378 301.628 345.575 300.695 348.329 296.825C350.041 294.42 354.892 290.096 359.109 287.217C367.638 281.395 369.899 281.473 371.704 287.654C372.311 289.73 373.588 291.218 374.859 291.33C379.442 291.734 382.063 291.936 384.631 292.086C386.102 292.172 389.645 293.976 392.504 296.095C398.321 300.406 400.974 300.734 409.435 298.186C414.316 296.716 416.052 296.649 419.914 297.779C426.887 299.821 430.711 298.483 433.503 293.029C437.559 285.102 437.111 284.402 428.22 284.769C421.737 285.037 420.438 284.785 420.069 283.187C419.342 280.038 425.267 275.731 430.323 275.731C434.282 275.731 434.834 276.093 435.521 279.14C436.226 282.272 436.6 282.493 440.143 281.872C442.262 281.501 446.788 279.629 450.2 277.711C453.612 275.792 458.506 273.268 461.076 272.102C465.944 269.892 470.673 265.427 470.673 263.042C470.673 260.572 466.801 260.251 459.995 262.154C456.331 263.179 452.931 263.661 452.44 263.227C451.95 262.792 453.897 260.531 456.769 258.203C462.767 253.338 463.615 249.349 459.229 246.625ZM817.105 191.236C810.501 180.243 806.895 179.442 802.156 187.914C797.884 195.553 797.557 200.281 800.729 208.587C803.184 215.02 803.374 217.044 802.604 228.643C801.549 244.507 802.263 248.213 806.375 248.213C808.013 248.213 811.556 248.995 814.247 249.95C820.181 252.056 822.235 255.506 824.378 266.962C825.668 273.866 825.442 277.598 822.828 280.616C832.595 288.076 845.004 295.441 851.002 281.494C849.903 280.073 849.083 278.237 848.709 276.162C848.115 272.862 845.297 269.061 836.671 259.921C825.669 248.263 825.418 247.869 825.781 242.882C826.294 235.877 828.837 235.74 836.735 242.295C842.516 247.092 843.659 247.571 850.333 247.999C856.872 248.419 857.95 248.176 860.81 245.639C862.564 244.082 863.998 241.873 863.998 240.729C863.998 239.585 865.172 237.706 866.606 236.554C870.295 233.593 872.938 228.644 872.093 226.281C871.026 223.3 860.839 220.206 851.723 220.094C845.025 220.012 843.433 219.604 841.486 217.472C840.22 216.084 839.183 214.343 839.183 213.604C839.183 212.866 835.104 209.01 830.118 205.036C824.154 200.281 819.705 195.563 817.105 191.236ZM515.03 260.375C512.796 260.405 509.061 261.657 506.655 263.183C504.267 264.697 498.585 267.686 494.029 269.826C489.475 271.966 485.436 274.436 485.055 275.316C483.869 278.058 487.572 278.192 493.196 275.612C496.936 273.896 501.249 273.041 507.263 272.819C517.225 272.453 519.062 271.159 519.062 264.514C519.062 260.506 518.884 260.323 515.03 260.375ZM614.076 236.105C613.093 236.106 611.04 237.662 609.514 239.563C606.992 242.705 606.872 243.465 608.189 247.836C610.163 254.383 610.055 255.489 606.899 261.095C604.673 265.049 604.474 266.134 605.837 266.882C607.525 267.806 614.516 266.237 614.702 264.892C614.757 264.496 615.04 257.858 615.332 250.14C615.775 238.439 615.566 236.105 614.076 236.105ZM727.511 236.653C725.44 234.439 718.832 234.606 715.549 236.955C714.087 238.002 711.92 240.591 710.732 242.71C709.546 244.829 706.231 248.803 703.366 251.543C696.383 258.221 693.139 262.825 693.354 265.9C697.111 265.495 700.827 265.091 704.436 264.694C705.262 263.794 706.319 262.71 707.47 261.604C711.748 257.494 712.837 257.02 717.987 257.02C722.819 257.02 724.072 256.56 725.865 254.133C728.559 250.485 729.646 238.937 727.511 236.653ZM887.564 212.985C885.518 212.015 884.508 212.307 881.895 214.625C880.146 216.176 878.9 218.288 879.123 219.318C879.347 220.349 882.869 222.69 886.951 224.521C893.74 227.567 894.438 228.219 895.157 232.185C895.879 236.167 899.761 240.508 902.6 240.508C905.009 240.508 903.482 236.017 899.495 231.384C897.181 228.694 894.893 224.817 894.41 222.769C893.927 220.72 892.751 217.946 891.794 216.605C890.837 215.265 888.934 213.636 887.564 212.985ZM848.994 192.519C846.111 189.795 842.38 189.057 841.062 190.949C839.33 193.435 839.131 202.635 840.751 205.285C842.755 208.563 848.708 208.734 851.365 205.592C853.692 202.839 852.404 195.738 848.994 192.519ZM687.112 145.771C684.735 143.44 679.798 143.044 676.211 144.893C674.95 145.543 671.306 148.376 668.113 151.188C664.921 154.001 660.564 157.659 658.434 159.317C651.693 164.562 646.862 172.086 646.862 177.34C646.862 186.696 651.182 185.349 668.576 170.575C676.082 164.2 683.44 157.992 684.927 156.778C688.803 153.616 689.831 148.436 687.112 145.771ZM723.765 139.495C719.612 138.794 716.82 145.232 720.705 146.554C723.337 147.449 726.463 144.831 726.021 142.101C725.818 140.843 724.803 139.67 723.765 139.495Z" fill="#141414"/>
</g>
<defs>
<clipPath id="clip0_9369_2417">
<rect width="1602" height="1802" fill="white" transform="translate(-2)"/>
</clipPath>
</defs>
</svg>
