<svg width="757" height="314" viewBox="0 0 757 314" fill="none" xmlns="http://www.w3.org/2000/svg">
<path d="M253.906 192.371V109.627H281.518V251H254.458V226.517H252.986C249.734 234.065 244.518 240.354 237.339 245.386C230.221 250.356 221.355 252.841 210.74 252.841C201.658 252.841 193.62 250.847 186.625 246.858C179.692 242.808 174.23 236.826 170.242 228.91C166.315 220.995 164.352 211.208 164.352 199.55V109.627H191.871V196.236C191.871 205.87 194.541 213.54 199.879 219.246C205.217 224.953 212.151 227.806 220.68 227.806C225.834 227.806 230.958 226.517 236.051 223.94C241.205 221.363 245.469 217.467 248.844 212.251C252.28 207.036 253.968 200.409 253.906 192.371ZM333.056 167.06V251H305.536V109.627H331.951V132.637H333.7C336.952 125.151 342.045 119.138 348.979 114.597C355.974 110.056 364.779 107.786 375.394 107.786C385.028 107.786 393.465 109.811 400.705 113.861C407.946 117.849 413.56 123.801 417.548 131.716C421.537 139.632 423.531 149.419 423.531 161.077V251H396.011V164.391C396.011 154.143 393.342 146.136 388.004 140.368C382.665 134.539 375.333 131.624 366.006 131.624C359.625 131.624 353.949 133.005 348.979 135.766C344.07 138.527 340.174 142.577 337.29 147.915C334.467 153.192 333.056 159.574 333.056 167.06ZM447.48 251V109.627H475V251H447.48ZM461.378 87.8135C456.592 87.8135 452.48 86.2181 449.044 83.0274C445.67 79.7754 443.982 75.9097 443.982 71.4304C443.982 66.8898 445.67 63.0241 449.044 59.8334C452.48 56.5813 456.592 54.9553 461.378 54.9553C466.164 54.9553 470.244 56.5813 473.619 59.8334C477.055 63.0241 478.773 66.8898 478.773 71.4304C478.773 75.9097 477.055 79.7754 473.619 83.0274C470.244 86.2181 466.164 87.8135 461.378 87.8135ZM524.374 203.047L524.19 169.453H528.976L585.305 109.627H618.255L554.011 177.736H549.685L524.374 203.047ZM499.063 251V62.5026H526.583V251H499.063ZM588.342 251L537.72 183.811L556.68 164.575L622.121 251H588.342Z" fill="#F5F5F5"/>
<path d="M113.843 154.266C115.899 154.98 116.042 155.053 118.133 155.886C124.237 158.315 129.897 161.515 135.112 165.485C140.327 169.456 144.535 174.375 147.735 180.242C150.995 186.109 152.624 193.132 152.624 201.311C152.624 211.622 149.957 220.778 144.624 228.778C139.35 236.779 131.675 243.09 121.601 247.713C111.585 252.335 99.4652 254.646 85.2422 254.646C71.612 254.646 59.8183 252.483 49.8623 248.157C39.9062 243.831 25.9375 229.214 20.3076 221.272L63.8018 186.539C55.0405 199.681 42.2293 208.511 51.1074 217.755C55.0929 221.904 59.7308 225.312 65.5977 227.445C71.5237 229.519 78.0135 230.557 85.0654 230.557C92.8285 230.557 99.7327 229.341 105.777 226.911C111.881 224.422 116.682 220.985 120.179 216.6C123.675 212.155 125.423 206.97 125.423 201.044C125.423 195.651 123.882 191.235 120.801 187.798C117.778 184.361 113.659 181.517 108.444 179.265C103.289 177.013 97.4504 175.027 90.9316 173.309L79.707 170.247L105.041 150.846L149.539 117.749L113.843 154.266ZM84.5996 58.3154C96.9261 58.3154 107.801 60.4786 117.224 64.8047C126.705 69.1308 134.173 75.0865 139.625 82.6719C141.963 85.8997 141.804 85.8932 143.183 89.5352L102.546 123.329C123.446 102.051 116.809 93.6948 109.935 89.0723C103.06 84.3908 94.4074 82.0498 83.9775 82.0498C76.5106 82.0499 70.0507 83.235 64.5986 85.6055C59.1465 87.9167 54.9091 91.117 51.8867 95.2061C48.9237 99.2357 47.4425 103.829 47.4424 108.984C47.4424 113.31 48.45 117.045 50.4648 120.186C52.5389 123.326 55.2353 125.963 58.5537 128.097C61.9315 130.171 65.5466 131.92 69.3984 133.342C73.2504 134.705 76.9551 135.831 80.5107 136.72L98.2891 141.343C99.6456 141.675 101.011 142.036 102.384 142.423L77.7861 161.497L67.4434 158.677C61.8156 157.144 59.4084 156.521 54.6816 154.432L0.703125 190.772L44.5264 149.621C40.212 147.16 36.1455 144.208 32.7744 141.165C24.2999 133.461 20.0625 123.267 20.0625 110.585C20.0625 100.096 22.9076 90.9398 28.5967 83.1172C34.2859 75.2945 41.9899 69.2197 51.709 64.8936C61.428 60.5081 72.3916 58.3155 84.5996 58.3154Z" fill="#F5F5F5"/>
<path d="M113.843 154.266C115.899 154.98 116.042 155.053 118.133 155.886C124.237 158.315 129.897 161.515 135.112 165.485C140.327 169.456 144.535 174.375 147.735 180.242C150.995 186.109 152.624 193.132 152.624 201.311C152.624 211.622 149.957 220.778 144.624 228.778C139.35 236.779 131.675 243.09 121.601 247.713C111.585 252.335 99.4652 254.646 85.2422 254.646C71.612 254.646 59.8183 252.483 49.8623 248.157C39.9062 243.831 25.9375 229.214 20.3076 221.272L63.8018 186.539C55.0405 199.681 42.2293 208.511 51.1074 217.755C55.0929 221.904 59.7308 225.312 65.5977 227.445C71.5237 229.519 78.0135 230.557 85.0654 230.557C92.8285 230.557 99.7327 229.341 105.777 226.911C111.881 224.422 116.682 220.985 120.179 216.6C123.675 212.155 125.423 206.97 125.423 201.044C125.423 195.651 123.882 191.235 120.801 187.798C117.778 184.361 113.659 181.517 108.444 179.265C103.289 177.013 97.4504 175.027 90.9316 173.309L79.707 170.247L105.041 150.846L149.539 117.749L113.843 154.266ZM84.5996 58.3154C96.9261 58.3154 107.801 60.4786 117.224 64.8047C126.705 69.1308 134.173 75.0865 139.625 82.6719C141.963 85.8997 141.804 85.8932 143.183 89.5352L102.546 123.329C123.446 102.051 116.809 93.6948 109.935 89.0723C103.06 84.3908 94.4074 82.0498 83.9775 82.0498C76.5106 82.0499 70.0507 83.235 64.5986 85.6055C59.1465 87.9167 54.9091 91.117 51.8867 95.2061C48.9237 99.2357 47.4425 103.829 47.4424 108.984C47.4424 113.31 48.45 117.045 50.4648 120.186C52.5389 123.326 55.2353 125.963 58.5537 128.097C61.9315 130.171 65.5466 131.92 69.3984 133.342C73.2504 134.705 76.9551 135.831 80.5107 136.72L98.2891 141.343C99.6456 141.675 101.011 142.036 102.384 142.423L77.7861 161.497L67.4434 158.677C61.8156 157.144 59.4084 156.521 54.6816 154.432L0.703125 190.772L44.5264 149.621C40.212 147.16 36.1455 144.208 32.7744 141.165C24.2999 133.461 20.0625 123.267 20.0625 110.585C20.0625 100.096 22.9076 90.9398 28.5967 83.1172C34.2859 75.2945 41.9899 69.2197 51.709 64.8936C61.428 60.5081 72.3916 58.3155 84.5996 58.3154Z" stroke="#141414"/>
<circle cx="686.245" cy="180.133" r="57.6684" stroke="#F5F5F5" stroke-width="25.9184"/>
</svg>
