<svg width="173" height="168" viewBox="0 0 173 168" fill="none" xmlns="http://www.w3.org/2000/svg">
<path fill-rule="evenodd" clip-rule="evenodd" d="M101.978 0.730157C101.123 1.15914 100.285 1.51 100.115 1.51C99.9447 1.51 99.3917 1.34508 98.8861 1.14352C98.0917 0.826856 97.7438 0.791093 96.3269 0.880501C95.4251 0.937445 94.2376 1.07234 93.688 1.18032C92.7758 1.35949 92.5476 1.33449 91.0675 0.893868C88.6283 0.16784 88.1305 0.154646 87.1694 0.790225C86.7272 1.08258 86.005 1.37303 85.5593 1.43796C84.5409 1.58587 83.0348 2.13534 82.1824 2.67022C81.8218 2.89644 81.0393 3.2032 80.4435 3.35198C78.8453 3.75111 78.1727 4.25926 77.5463 5.54135C76.3926 7.90259 75.4746 8.34199 73.2744 7.58628C72.7185 7.39531 71.924 7.23906 71.5091 7.23906C70.8207 7.23906 70.644 7.34045 69.493 8.39581C68.0713 9.69944 67.3484 10.1885 66.8405 10.1904C66.6492 10.1911 66.2414 10.3446 65.9344 10.5315C65.5017 10.7951 65.3122 11.0906 65.0926 11.8452C64.779 12.9219 64.3838 13.2641 62.8727 13.7667C62.2865 13.9619 61.6266 14.4268 60.6751 15.3151C59.9272 16.0136 59.0913 16.7024 58.8176 16.8462C58.5439 16.9899 57.9294 17.5066 57.4519 17.9942C56.7346 18.7272 56.3746 18.9434 55.3768 19.2399C53.7694 19.718 53.4802 19.9321 52.4953 21.3742C51.3944 22.986 50.9127 23.4851 49.3286 24.6545C47.7274 25.8368 47.3503 26.2944 47.0079 27.4703C46.6973 28.5371 46.4713 28.7675 45.1767 29.3366C44.3008 29.7216 44.089 29.9314 43.0135 31.4784C41.0697 34.2745 40.6701 35.1578 40.6701 36.6592C40.6701 37.5543 40.7719 38.1534 41.0141 38.6866C41.4246 39.5897 41.4631 40.8153 41.1024 41.5056C40.959 41.7804 40.1342 42.67 39.27 43.4823C37.313 45.3213 37.1158 45.6753 37.2605 47.0866C37.3457 47.9156 37.2767 48.5244 36.9545 49.7895C36.6509 50.9811 36.5615 51.7091 36.6237 52.4841C36.7013 53.4491 36.6722 53.5715 36.3034 53.8295C35.7562 54.2122 34.3315 54.1882 33.4336 53.7811C32.2222 53.2318 31.7534 53.1981 30.6619 53.5811C29.1884 54.0981 24.0216 54.2837 22.4411 53.8762C21.0831 53.5261 20.6203 53.5208 19.986 53.8483C19.3603 54.1714 18.0875 55.6699 17.4754 56.8041C16.5934 58.4381 15.8573 59.2739 14.7248 59.927C14.1228 60.274 13.2342 60.9634 12.7501 61.4587C12.266 61.9542 11.5445 62.6158 11.147 62.929C10.6316 63.3351 10.3668 63.7088 10.224 64.2311C10.1139 64.634 9.94787 65.2205 9.85519 65.5345C9.76251 65.8484 9.14955 66.6834 8.49329 67.39C7.83703 68.0966 7.10774 69.0508 6.87246 69.5101C6.33497 70.5598 5.94511 70.9714 4.78631 71.7113C3.57065 72.4879 3.21905 72.9658 2.75598 74.4718C2.38142 75.6899 2.37882 75.7508 2.66938 76.5086C3.25209 78.0289 3.23313 78.1857 2.36977 78.9909C1.4805 79.8204 1.29357 80.1353 1.11899 81.0997C1.05065 81.4762 0.793465 82.1793 0.547238 82.6621C0.235976 83.2724 0.0758231 83.91 0.0217435 84.755C-0.0878069 86.4622 0.116514 86.628 3.02794 87.1964C5.03776 87.5888 5.43979 87.616 7.04236 87.4678C9.52689 87.2379 10.5814 86.7447 12.0034 85.1472L13.0857 83.9314L14.1405 84.0703C15.8631 84.2974 17.9783 84.18 19.1265 83.7939C19.6968 83.6021 20.689 83.3243 21.3312 83.1769C21.9734 83.0293 22.8256 82.7187 23.2252 82.4865C24.0978 81.9792 24.646 81.9559 25.5052 82.3899C26.1963 82.7389 27.6952 83.1035 28.4629 83.1092C28.7213 83.1113 29.6369 82.7545 30.4976 82.3165C32.5015 81.2969 33.2018 81.2002 34.7553 81.7283L35.952 82.1349L37.1918 81.7292C38.6442 81.2538 39.8603 81.3009 40.9899 81.8762C42.1266 82.4552 42.3563 83.1741 41.6344 83.8948C41.0336 84.4947 40.0008 84.4692 38.7574 83.8238C37.2466 83.0396 36.9522 83.0179 35.7374 83.601C35.1509 83.8826 34.3188 84.2053 33.8884 84.318C32.7502 84.6161 31.7736 85.2361 31.0461 86.1225C30.0754 87.3051 28.9215 87.7962 27.0821 87.8098C26.2639 87.8157 25.2646 87.732 24.8612 87.6235C23.3791 87.2251 22.7898 87.7232 22.1648 89.9019C21.8452 91.0163 21.5367 91.284 20.2091 91.6C18.6599 91.9686 18.4528 92.5083 19.0143 94.7116C19.4586 96.4548 19.4368 96.41 20.4306 97.6315C21.2655 98.6577 21.4475 99.2615 21.2825 100.458C21.0937 101.83 21.7724 102.713 23.0204 102.719C23.8611 102.723 24.6382 102.278 25.306 101.412C26.9077 99.3342 27.0381 99.2842 28.6603 100.127C29.9978 100.822 30.6689 100.912 32.0962 100.585C32.7472 100.436 33.7213 100.271 34.2609 100.218C34.8005 100.164 35.6613 99.9257 36.1737 99.6877C37.4723 99.0841 37.9893 99.1269 39.254 99.9431C41.2756 101.248 41.6451 101.382 42.85 101.253C43.4454 101.19 44.7047 100.859 45.6486 100.519C46.5926 100.178 48.0895 99.6443 48.9753 99.332C50.9397 98.6393 52.0926 97.9221 53.0208 96.8153C53.4082 96.3534 54.214 95.6671 54.8117 95.2904C55.4104 94.9128 56.4694 93.9727 57.1709 93.1956C58.5797 91.6356 59.0692 91.4455 59.7677 92.1878C60.6048 93.0776 59.9467 94.8319 58.2138 96.3294C57.6251 96.8384 56.6255 97.7079 55.9928 98.2617C55.36 98.8155 54.3335 99.5045 53.7118 99.7931C51.2873 100.919 51.368 100.863 51.3106 101.454C51.2384 102.2 51.6653 102.593 53.0432 103.051C53.6668 103.258 54.5112 103.713 54.9638 104.087C56.0463 104.98 57.3484 105.799 57.904 105.935C58.209 106.011 58.7211 105.894 59.469 105.578C60.2845 105.234 60.9971 105.083 62.1455 105.012C66.2093 104.759 68.0716 105.006 69.2351 105.951C69.6396 106.279 70.5327 106.82 71.2197 107.153C72.318 107.685 72.6335 107.758 73.8281 107.76C74.5756 107.761 75.6176 107.877 76.1436 108.018C77.3721 108.348 78.6867 108.348 79.6214 108.018C80.0279 107.875 80.5404 107.758 80.7602 107.758C81.3392 107.758 82.1788 108.538 82.7001 109.56C83.0849 110.315 83.16 110.711 83.1976 112.185C83.2433 113.981 83.9399 117.118 84.5583 118.311C84.7169 118.618 86.0146 120.02 87.4422 121.429C89.0589 123.024 90.0678 124.154 90.117 124.424C90.1605 124.663 90.2771 125.757 90.3763 126.855C90.4903 128.118 90.7517 129.503 91.0882 130.625C91.7015 132.672 91.7535 133.451 91.304 133.857C90.7753 134.335 90.0302 134.368 88.4238 133.988C87.5843 133.788 86.3349 133.626 85.6475 133.626C84.3581 133.626 84.3046 133.607 82.4914 132.507L81.6484 131.995L80.1568 132.388C78.453 132.837 77.7745 133.346 77.6006 134.307C77.4483 135.148 77.0906 135.815 76.7151 135.96C76.5442 136.026 75.8066 136.193 75.0761 136.331C73.3894 136.651 73.0376 136.522 72.2114 135.28C71.2296 133.803 70.6643 133.53 68.7051 133.582C67.8033 133.606 66.8309 133.734 66.4998 133.872C65.6853 134.212 64.7079 135.588 64.578 136.577C64.5217 137.007 64.4113 137.475 64.3327 137.619C64.1722 137.911 63.4495 137.923 62.2446 137.653C61.7565 137.543 61.0875 137.538 60.4188 137.639C59.3455 137.8 57.8368 137.986 55.0042 138.308C54.137 138.406 52.9241 138.488 52.3089 138.489C51.1828 138.492 50.806 138.639 49.4564 139.601C48.7892 140.076 48.1326 140.014 47.1802 139.384C46.405 138.871 46.2365 138.832 44.6833 138.802C43.7671 138.785 42.8389 138.78 42.6205 138.792C42.0833 138.822 40.9524 139.742 40.3121 140.672C40.0236 141.09 39.6254 141.519 39.4272 141.625C38.7949 141.963 36.7729 142.46 35.5282 142.583C34.8165 142.653 33.9841 142.871 33.4949 143.116C33.0393 143.343 32.0443 143.647 31.2838 143.791C30.523 143.935 29.3877 144.246 28.7606 144.482C28.1336 144.717 27.2949 144.91 26.8969 144.91C25.7782 144.91 24.7598 145.488 24.335 146.364C23.6566 147.763 23.9846 151.592 25.0081 154.224C25.8462 156.378 26.8548 157.882 28.6592 159.667C31.0763 162.057 33.5947 163.355 37.1054 164.02C38.09 164.206 38.2225 164.294 39.4574 165.58C40.3867 166.547 41.0676 167.083 41.8049 167.428L42.8438 167.913H50.4079H57.9721L58.984 167.417C59.6446 167.093 60.4438 166.461 61.2866 165.594L62.5774 164.267L92.7052 164.223C126.677 164.172 123.307 164.031 124.571 165.56C125.491 166.672 126.332 167.255 127.59 167.651C128.618 167.976 129.169 168 135.514 168C144.159 168 143.999 168.036 146.395 165.563C147.622 164.296 147.761 164.205 148.742 164.019C152.248 163.358 154.771 162.057 157.189 159.667C160.329 156.561 161.879 152.858 161.867 148.49C161.862 146.601 161.475 145.723 160.442 145.255C160.033 145.07 159.557 144.916 159.384 144.914C158.831 144.907 158.089 144.414 157.71 143.801C157.226 143.02 155.957 142.221 154.381 141.706C153.326 141.361 152.979 141.145 152.319 140.422C151.386 139.401 151.15 139.27 149.587 138.908C148.155 138.577 147.442 138.688 146.672 139.364C145.7 140.216 144.967 140.439 143.831 140.229C143.293 140.13 142.561 140.049 142.204 140.049C141.797 140.049 141.128 139.823 140.408 139.441C139.379 138.897 139.12 138.834 137.903 138.834C136.102 138.834 135.001 138.481 133.703 137.487C133.112 137.034 132.206 136.351 131.69 135.969C131.174 135.587 130.516 134.952 130.228 134.558C129.762 133.922 129.408 133.688 128.484 133.404C128.038 133.268 125.883 133.628 124.95 133.995C124.198 134.291 123.841 134.327 122.636 134.226C121.79 134.156 121.035 133.992 120.778 133.823C119.983 133.302 118.147 131.845 117.355 131.107C116.925 130.706 116.182 130.087 115.703 129.731C114.496 128.834 114.4 128.601 114.514 126.855C114.595 125.612 114.552 125.224 114.237 124.395C113.735 123.074 113.355 122.632 112.084 121.892C111.492 121.548 110.617 120.968 110.139 120.604C109.661 120.239 108.662 119.654 107.92 119.304C107.178 118.953 106.483 118.502 106.375 118.302C106.18 117.936 106.207 117.254 106.561 113.706C106.75 111.807 107.222 110.662 108.333 109.407C108.756 108.93 109.393 108.176 109.749 107.731C110.104 107.287 110.82 106.623 111.339 106.256C111.858 105.888 112.637 105.333 113.07 105.022C113.588 104.65 114.427 104.305 115.522 104.014C116.437 103.771 117.868 103.298 118.702 102.962C119.937 102.465 120.492 102.341 121.699 102.295C122.514 102.264 123.83 102.18 124.624 102.108C125.754 102.006 126.683 102.066 128.9 102.384C131.672 102.782 131.756 102.784 132.864 102.484C133.626 102.278 134.618 101.779 135.892 100.962C136.935 100.294 138.264 99.5285 138.846 99.2622C139.631 98.9032 140.629 98.1162 142.707 96.2192C145.837 93.3623 145.846 93.3472 146.237 90.6576C146.5 88.8552 146.501 88.608 146.275 85.0758L146.106 82.4453L145.337 81.0948C144.915 80.3521 144.06 79.1912 143.439 78.5152C142.817 77.839 141.996 76.873 141.615 76.3685C141.233 75.864 140.36 75.0227 139.675 74.4989C138.094 73.2899 136.006 71.1025 135.853 70.4962C135.509 69.1278 137.586 68.54 139.444 69.4799C140.52 70.0242 142.569 70.2438 143.7 69.9362C144.082 69.832 144.943 69.3091 145.612 68.774C147.01 67.6572 147.468 67.6102 148.596 68.4678C149.183 68.9146 149.344 68.952 150.468 68.9016C152.595 68.8065 153.672 68.8235 157.908 69.0186L162.031 69.2086L163.185 68.6921C164.483 68.1105 165.029 68.0596 165.931 68.4358C167.789 69.211 170.488 68.1539 171.263 66.3473C171.436 65.9451 171.898 65.2994 172.289 64.9128C172.68 64.526 173 64.0897 173 63.943C173 63.7963 172.707 63.459 172.348 63.1934C171.115 62.2799 168.367 59.3721 167.816 58.3975C167.027 57.0024 166.805 56.8982 164.648 56.9133C163.203 56.9234 162.548 57.0163 161.471 57.3628C159.925 57.8603 158.378 57.8593 157.675 57.36C157.449 57.1987 156.637 56.6289 155.872 56.0935L154.481 55.1205L153.155 55.2345C152.425 55.2972 151.408 55.4602 150.894 55.5968C149.061 56.084 147.221 55.8432 145.794 54.9297C144.996 54.4189 144.815 54.3767 143.359 54.3608C142.494 54.3514 141.511 54.2845 141.174 54.2122C140.651 54.0998 140.363 54.1851 139.202 54.7951C138.066 55.3925 137.695 55.505 136.939 55.4804C135.904 55.4467 135.418 55.6496 135.154 56.2265C134.267 58.1584 133.165 60.1678 132.684 60.7315C131.529 62.0832 130.385 62.2952 129.423 61.3353C128.939 60.8514 128.832 60.6136 128.832 60.0159C128.832 59.2468 129.811 56.7473 130.341 56.1623C130.827 55.6258 134.394 53.8227 135.788 53.4087C136.505 53.1957 137.556 52.7901 138.123 52.5075C139.036 52.0523 139.321 51.996 140.617 52.0141C142.355 52.0386 143.247 51.8299 144.324 51.1473C145.223 50.5766 145.684 50.5285 146.729 50.8966C148.31 51.4537 148.972 51.4245 151.107 50.7034C152.907 50.095 153.233 50.0376 154.648 50.0787C156.868 50.1433 158.017 49.9034 158.611 49.2513C158.874 48.9624 159.089 48.5683 159.089 48.3758C159.089 47.681 159.582 46.8838 160.845 45.5349L162.132 44.1613V42.84C162.132 41.6504 162.077 41.4325 161.577 40.6546C161.272 40.1794 160.942 39.4322 160.844 38.9942C160.745 38.5562 160.428 37.7475 160.138 37.197C159.848 36.6467 159.611 36.0224 159.611 35.8097C159.611 35.597 159.36 35.0453 159.054 34.5835C158.66 33.9908 158.461 33.4424 158.375 32.7171C158.223 31.4292 157.79 30.9346 156.489 30.5647C155.046 30.1548 152.321 27.8979 151.626 26.5375C151.432 26.1587 151.005 25.6262 150.676 25.3545C150.346 25.0818 149.885 24.4229 149.647 23.8842C149.41 23.3474 149.124 22.8514 149.012 22.7822C148.598 22.527 145.493 21.8221 144.782 21.8218C143.622 21.8214 142.935 21.3648 142.324 20.1876C141.905 19.38 141.586 19.0317 140.833 18.5559C140.305 18.2231 139.48 17.5328 138.998 17.022C138.007 15.9712 137.661 15.8915 136.459 16.4365C135.537 16.854 134.27 16.8884 133.73 16.5106C133.512 16.3583 133.153 15.8236 132.931 15.3226C132.699 14.799 132.292 14.2441 131.974 14.0183C131.67 13.8021 131.228 13.3205 130.993 12.9482C130.758 12.5756 130.315 12.0567 130.009 11.7949C129.703 11.5331 129.052 10.9478 128.561 10.4942C127.562 9.57166 127.229 9.50465 125.859 9.95203C124.685 10.3355 123.776 10.1847 122.668 9.4227C121.801 8.82671 121.703 8.80153 120.248 8.80153C117.975 8.80153 117.292 8.37567 116.602 6.5271C116.215 5.49153 115.798 5.30455 114.179 5.43806C112.962 5.5384 112.894 5.52295 112.06 4.9582C111.53 4.59901 111.006 4.04069 110.697 3.50649C109.986 2.27874 109.449 1.76608 108.609 1.51504C108.207 1.3949 107.335 1.02338 106.67 0.689359C105.845 0.27461 105.155 0.0610714 104.496 0.016107C103.632 -0.0429197 103.369 0.0317329 101.978 0.730157ZM81.815 38.6213C82.3048 38.9435 82.2299 39.5027 81.5093 40.9058C80.3778 43.1092 79.6436 43.5337 78.1433 42.8525C77.3236 42.4801 76.9356 42.0653 77.073 41.7079C77.1273 41.5664 77.6865 41.2002 78.3156 40.8938C78.9509 40.5846 79.7622 40.0093 80.1401 39.6001C80.7542 38.9347 81.299 38.5036 81.5341 38.4965C81.582 38.4949 81.7084 38.5512 81.815 38.6213ZM86.2109 43.2407C86.6849 43.811 85.7618 44.4446 85.0281 44.0526C84.6195 43.8342 84.5617 43.5212 84.8728 43.2106C85.1552 42.9287 85.9666 42.9469 86.2109 43.2407ZM98.5931 44.2986C98.9181 44.5342 99.3646 44.8587 99.5854 45.0196C99.8266 45.1956 100.52 45.3627 101.324 45.4384C102.068 45.5085 103.009 45.726 103.444 45.9288C103.892 46.1371 104.585 46.2948 105.064 46.297C105.525 46.2991 106.049 46.3795 106.229 46.4757C106.409 46.5718 107.108 47.4744 107.782 48.4815C109.145 50.5155 109.321 51.2396 108.658 52.0808C107.838 53.1222 106.382 53.1023 104.139 52.0191C103.354 51.6401 102.192 51.2063 101.556 51.0549C100.921 50.9037 99.5181 50.3556 98.4392 49.8371C96.0106 48.6702 95.7947 48.3913 95.7938 46.4196C95.7931 44.9031 95.9346 44.5141 96.6234 44.141C97.3162 43.7656 97.925 43.8144 98.5931 44.2986ZM68.2846 48.0602C68.3594 48.7043 67.5938 49.2871 66.7643 49.2173C65.9321 49.1471 65.8683 48.7003 66.5939 48.0236C67.3321 47.3352 68.2027 47.3541 68.2846 48.0602ZM78.6556 48.3069C80.0928 49.0195 79.8584 49.6256 77.8593 50.3653C76.495 50.8702 75.7595 50.9164 74.4836 50.5771C73.2744 50.2556 72.8612 50.0061 72.74 49.5237C72.5983 48.9598 72.9313 48.4057 73.5924 48.1055C74.4283 47.726 77.7503 47.8581 78.6556 48.3069ZM58.5578 49.1506C58.939 49.5315 59.0111 49.7513 58.9894 50.4652C58.9367 52.2 58.0453 53.1993 56.2249 53.5642C55.4499 53.7196 55.1318 53.7155 54.7762 53.5453C54.233 53.2854 53.8177 52.1946 53.964 51.4115C54.072 50.8327 55.6309 48.9692 56.2179 48.7171C56.8773 48.434 58.0598 48.6531 58.5578 49.1506ZM119.464 50.9252C120.204 51.3129 120.985 51.907 121.49 52.4646C122.457 53.5339 124.458 57.3777 124.516 58.2798C124.537 58.614 124.494 59.6296 124.418 60.5367C124.293 62.0455 124.32 62.3042 124.729 63.5748C125.763 66.7866 124.995 67.9706 122.274 67.3569C120.242 66.8984 119.486 66.3444 118.653 64.704C118.484 64.3703 117.879 63.6116 117.308 63.0182C115.631 61.2752 113.559 57.6966 113.397 56.2671C113.292 55.3396 113.754 54.4861 115.174 52.9844C115.715 52.4117 116.35 51.5721 116.586 51.1185C116.975 50.3673 117.069 50.2938 117.637 50.2938C118.018 50.2938 118.73 50.5398 119.464 50.9252ZM68.7968 51.9938C69.1224 52.4075 69.064 52.7542 68.5359 53.538C67.6621 54.8349 65.7283 57.1444 65.1011 57.6404C64.2328 58.3267 62.459 59.1235 61.5103 59.2534C60.8387 59.3452 60.6499 59.3039 60.3435 58.998C59.6389 58.2945 60.3494 57.3359 63.1019 55.2757C64.0104 54.5957 65.2252 53.5917 65.8015 53.0446C67.4046 51.5224 68.2047 51.2419 68.7968 51.9938ZM75.705 58.815C76.8237 59.7381 77.6015 59.924 79.5289 59.7296C80.876 59.5937 81.3171 59.6235 82.7714 59.9499C83.6973 60.1577 84.8022 60.531 85.2269 60.7794C86.2405 61.3724 86.6324 61.3495 87.5041 60.6464C88.4831 59.8567 88.8826 59.6686 89.5809 59.6686C89.9068 59.6686 90.5575 59.5523 91.027 59.4101C92.0107 59.1122 92.6631 59.0744 92.6631 59.3152C92.6631 59.5574 90.6703 61.1763 89.8704 61.5837C89.4957 61.7745 88.6208 62.0394 87.9265 62.1722C87.1532 62.3202 85.976 62.7498 84.8888 63.2807C83.7898 63.8177 82.7635 64.1911 82.1935 64.2616C80.3828 64.4854 79.3454 64.7517 78.3657 65.2446C77.8185 65.5198 77.1798 65.7449 76.9464 65.7449C76.193 65.7449 75.4339 64.538 74.8441 62.4014C74.608 61.5467 74.4443 61.3075 73.7157 60.7521C72.6465 59.9372 72.2359 59.2115 72.5623 58.7138C72.8426 58.2862 73.7359 57.9711 74.3944 58.0676C74.665 58.1072 75.2548 58.4437 75.705 58.815ZM70.7365 61.8966C71.5534 62.766 73.7223 66.8124 73.8397 67.6859C73.9251 68.3214 73.8745 68.4211 73.0748 69.1905C72.551 69.6947 71.8158 70.1744 71.1815 70.4261C70.6111 70.6525 69.5966 71.1089 68.9272 71.4405C66.9622 72.4134 65.945 72.6932 63.9713 72.8035C61.5894 72.9365 60.95 72.7557 59.6714 71.587C58.2131 70.2542 57.9109 70.0851 56.9884 70.0851C55.9489 70.0851 55.478 69.9034 54.6571 69.1853C53.7517 68.3935 53.0163 67.1876 53.0163 66.4949C53.0163 66.0145 53.2853 65.6314 54.711 64.0802C57.0519 61.5332 57.8184 61.1985 60.2477 61.6625C61.0046 61.8071 61.9765 61.9255 62.4075 61.9255C62.8386 61.9255 63.8945 62.1188 64.7542 62.3549C66.4713 62.8266 67.1625 62.7712 68.0264 62.0927C68.6646 61.5915 69.3944 61.2334 69.7801 61.2322C69.9622 61.2316 70.3925 61.5306 70.7365 61.8966ZM101.866 65.901C102.461 66.0859 103.746 66.7624 104.794 67.4428C105.821 68.1096 107.375 69.0115 108.247 69.4473C110.375 70.5101 113.21 72.9344 114.573 74.8559C114.908 75.3277 115.73 76.1697 116.399 76.727C117.152 77.3539 117.927 78.2173 118.431 78.9907C118.88 79.6785 119.623 80.7851 120.083 81.45C121.852 84.0053 122.255 84.7743 122.268 85.6235C122.277 86.2296 122.186 86.519 121.898 86.8058C121.553 87.1487 121.336 87.1857 119.653 87.187C118.628 87.1881 117.437 87.2546 117.006 87.3351C116.32 87.4633 116.023 87.4039 114.628 86.8596C113.751 86.5176 112.471 86.1506 111.783 86.044C111.095 85.9374 109.974 85.6086 109.292 85.3133C107.576 84.5701 105.796 84.5413 104.102 85.2295C103.459 85.4904 102.599 85.7484 102.189 85.8027C100.523 86.0239 100.304 86.0883 99.8113 86.5018C99.4997 86.7638 99.1206 87.3973 98.8456 88.116C98.123 90.0033 97.4525 90.4519 94.4082 91.0837C93.0846 91.3583 92.6186 91.3891 92.0273 91.2403C91.0315 90.9899 90.004 90.069 89.3461 88.8369C89.0058 88.1992 88.5393 87.6339 88.1054 87.3338C87.723 87.0694 87.1057 86.4051 86.7336 85.8581C86.3615 85.3109 85.9843 84.8185 85.8955 84.7637C85.8068 84.709 85.6047 84.2753 85.4467 83.8003C85.2886 83.3251 84.9744 82.7913 84.7483 82.6137C84.1547 82.1476 81.5644 81.8127 79.764 81.9695C77.0695 82.2042 76.4931 82.7653 76.4921 85.1543C76.4914 86.6541 76.2328 87.4817 75.701 87.6853C75.2199 87.8697 74.409 87.8042 73.8969 87.54C73.2662 87.2143 71.8751 85.6699 71.3968 84.764C70.868 83.7628 70.9184 82.1813 71.5301 80.5884C71.7868 79.92 72.1895 78.8289 72.4253 78.1638C72.6609 77.4985 72.9877 76.8029 73.1511 76.6178C73.5559 76.1595 76.1956 74.9303 78.3554 74.1944C79.3329 73.8614 80.4675 73.3632 80.8768 73.0871C81.2862 72.8111 82.3349 72.1012 83.2075 71.5094C84.0799 70.9176 85.3291 70.2322 85.9835 69.9863C86.6378 69.7405 87.5279 69.281 87.9618 68.9653C88.3957 68.6497 89.6896 67.9128 90.8372 67.3279C92.5934 66.4328 93.1442 66.2364 94.315 66.0878C99.056 65.4859 100.421 65.452 101.866 65.901ZM70.8493 88.1488C71.3827 88.631 72.2064 89.2634 72.6799 89.5544C73.1534 89.8452 73.6178 90.2269 73.7119 90.4025C74.3529 91.5981 72.9404 93.3486 71.3347 93.3486C69.5892 93.3486 68.0928 90.6226 68.6655 88.4858C69.0698 86.9766 69.4824 86.9129 70.8493 88.1488ZM54.6498 89.2391C55.5041 89.4966 56.0369 90.1669 55.8808 90.7879C55.7211 91.4231 54.4796 92.6218 53.1702 93.4052L52.0599 94.0692L50.364 93.9958C48.4816 93.914 47.9735 93.6673 47.9735 92.835C47.9735 92.2948 48.7793 91.1398 49.5816 90.5299C51.2748 89.2429 53.1109 88.7754 54.6498 89.2391Z" fill="#141414"/>
</svg>
